<svg xmlns="http://www.w3.org/2000/svg" viewBox="0 0 511.999 511.999" >
    <path fill="#fff" d="M399.436 191.249 262.903 3.516A8.521 8.521 0 0 0 255.999 0a8.514 8.514 0 0 0-6.895 3.516L112.571 191.249a8.516 8.516 0 0 0-1.638 5.018c0 1.323.316 2.645.939 3.874a8.514 8.514 0 0 0 7.595 4.659H204.8v93.867a8.53 8.53 0 0 0 8.533 8.533h85.333a8.525 8.525 0 0 0 8.533-8.533V204.8h85.333c3.209 0 6.153-1.8 7.603-4.659a8.533 8.533 0 0 0-.699-8.892zM281.603 324.266h-51.2c-14.114 0-25.6 11.486-25.6 25.6s11.486 25.6 25.6 25.6h51.2c14.114 0 25.6-11.486 25.6-25.6s-11.486-25.6-25.6-25.6zm0 68.266h-51.2c-14.114 0-25.6 11.486-25.6 25.6s11.486 25.6 25.6 25.6h51.2c14.114 0 25.6-11.486 25.6-25.6s-11.486-25.6-25.6-25.6zm0 68.267h-51.2c-14.114 0-25.6 11.486-25.6 25.6s11.486 25.6 25.6 25.6h51.2c14.114 0 25.6-11.486 25.6-25.6s-11.486-25.6-25.6-25.6z"/>
</svg>
